<svg id="Capa_1" data-name="Capa 1" xmlns="http://www.w3.org/2000/svg" viewBox="0 0 83.91 83.91"><defs><style>.cls-1{fill:#fff;}.cls-2{font-size:16px;font-family:Open Sans;}.cls-2,.cls-4{fill:#051c4f;}.cls-3{fill:#73e600;}</style></defs><title>guides1</title><rect class="cls-1" width="83.91" height="83.91"/><text class="cls-2" transform="translate(18.83 76.29)">Todos</text><rect class="cls-3" x="21.7" y="25.37" width="10.65" height="10.65"/><rect class="cls-3" x="53.65" y="25.37" width="10.65" height="10.65"/><rect class="cls-3" x="37.67" y="25.37" width="10.65" height="10.65"/><path class="cls-4" d="M-273.51,1969.51h-12.92v-12.92h12.92v12.92Zm-11.08-1.85h9.23v-9.23h-9.23v9.23Z" transform="translate(306.36 -1948.97)"/><path class="cls-4" d="M-256.9,1969.51h-12.92v-12.92h12.92v12.92Zm-11.07-1.85h9.23v-9.23H-268v9.23Z" transform="translate(306.36 -1948.97)"/><path class="cls-4" d="M-240.28,1969.51h-12.92v-12.92h12.92v12.92Zm-11.08-1.85h9.23v-9.23h-9.23v9.23Z" transform="translate(306.36 -1948.97)"/><path class="cls-4" d="M-273.51,1986.13h-12.92V1973.2h12.92v12.92Zm-11.08-1.85h9.23V1975h-9.23v9.23Z" transform="translate(306.36 -1948.97)"/><path class="cls-4" d="M-256.9,1986.13h-12.92V1973.2h12.92v12.92Zm-11.07-1.85h9.23V1975H-268v9.23Z" transform="translate(306.36 -1948.97)"/><path class="cls-4" d="M-240.28,1986.13h-12.92V1973.2h12.92v12.92Zm-11.08-1.85h9.23V1975h-9.23v9.23Z" transform="translate(306.36 -1948.97)"/><path class="cls-4" d="M-273.51,2002.74h-12.92v-12.92h12.92v12.92Zm-11.08-1.85h9.23v-9.23h-9.23v9.23Z" transform="translate(306.36 -1948.97)"/><path class="cls-4" d="M-256.9,2002.74h-12.92v-12.92h12.92v12.92Zm-11.07-1.85h9.23v-9.23H-268v9.23Z" transform="translate(306.36 -1948.97)"/><path class="cls-4" d="M-240.28,2002.74h-12.92v-12.92h12.92v12.92Zm-11.08-1.85h9.23v-9.23h-9.23v9.23Z" transform="translate(306.36 -1948.97)"/></svg>