<svg id="Capa_1" data-name="Capa 1" xmlns="http://www.w3.org/2000/svg" viewBox="0 0 83.91 83.91"><defs><style>.cls-1{fill:#fff;}.cls-2{font-size:16px;font-family:Open Sans;}.cls-2,.cls-3{fill:#051c4f;}.cls-4{fill:#73e600;}</style></defs><title>guides2</title><rect class="cls-1" width="83.91" height="83.91"/><text class="cls-2" transform="translate(5.55 76.38)">Tus Guías</text><path class="cls-3" d="M-252.55,1977.61c-4.79-1.85-6-2.7-6.2-2.91v-0.29a7.35,7.35,0,0,0,1.33-2.47,2.68,2.68,0,0,0,.78-1.55,2.64,2.64,0,0,0-.34-1.71v-1.86c0-3.07-2-4.9-5.23-4.9s-5.23,1.88-5.23,4.9v1.86a2.64,2.64,0,0,0-.34,1.71,2.67,2.67,0,0,0,.78,1.55,7.33,7.33,0,0,0,1.33,2.47v0.25c-0.32.3-1.55,1.16-6.2,3a1.77,1.77,0,0,0-1.13,1.66v2.45a1.78,1.78,0,0,0,1.77,1.78h18a1.78,1.78,0,0,0,1.77-1.78v-2.45A1.79,1.79,0,0,0-252.55,1977.61Zm-1,3.73h-17.26v-1.8c6.26-2.44,7-3.43,7.28-4.24a1.13,1.13,0,0,0,0-.32v-1a1.08,1.08,0,0,0-.31-0.76A5.13,5.13,0,0,1-265,1971a1.1,1.1,0,0,0-.42-0.59,0.48,0.48,0,0,1-.2-0.34,0.5,0.5,0,0,1,.11-0.4,1.06,1.06,0,0,0,.25-0.68v-2.2c0-1.81,1-2.73,3.06-2.73s3.06,0.87,3.06,2.73v2.2a1.06,1.06,0,0,0,.24.68,0.52,0.52,0,0,1,.12.4,0.51,0.51,0,0,1-.2.34,1.08,1.08,0,0,0-.42.59,5.14,5.14,0,0,1-1.19,2.21,1.08,1.08,0,0,0-.31.76v1a1.06,1.06,0,0,0,0,.32c0.25,0.81,1,1.8,7.28,4.24v1.8Z" transform="translate(306.36 -1948.97)"/><path class="cls-3" d="M-262.25,1953.57a20.15,20.15,0,0,0-20.13,20.13,20.16,20.16,0,0,0,15.6,19.61l3.5,10.83a1.08,1.08,0,0,0,1,.75,1.08,1.08,0,0,0,1-.75l3.5-10.83a20.16,20.16,0,0,0,15.6-19.61A20.15,20.15,0,0,0-262.25,1953.57Zm3.48,37.74a1.08,1.08,0,0,0-.82.73l-2.66,8.23-2.66-8.23a1.08,1.08,0,0,0-.82-0.73,18,18,0,0,1-14.48-17.61,18,18,0,0,1,18-18,18,18,0,0,1,18,18A18,18,0,0,1-258.76,1991.31Z" transform="translate(306.36 -1948.97)"/><path class="cls-4" d="M-253.67,1981.34h-17.26v-1.8c6.26-2.44,7-3.43,7.28-4.24a1.13,1.13,0,0,0,0-.32v-1a1.08,1.08,0,0,0-.31-0.76,5.13,5.13,0,0,1-1.19-2.21,1.1,1.1,0,0,0-.42-0.59,0.48,0.48,0,0,1-.2-0.34,0.5,0.5,0,0,1,.11-0.4,1.06,1.06,0,0,0,.25-0.68v-2.2c0-1.81,1-2.73,3.06-2.73s3.06,0.87,3.06,2.73v2.2a1.06,1.06,0,0,0,.24.68,0.52,0.52,0,0,1,.12.4,0.51,0.51,0,0,1-.2.34,1.08,1.08,0,0,0-.42.59,5.14,5.14,0,0,1-1.19,2.21,1.08,1.08,0,0,0-.31.76v1a1.06,1.06,0,0,0,0,.32c0.25,0.81,1,1.8,7.28,4.24v1.8Z" transform="translate(306.36 -1948.97)"/></svg>