<svg id="Capa_1" data-name="Capa 1" xmlns="http://www.w3.org/2000/svg" viewBox="0 0 63.8 45.88"><defs><style>.cls-1{fill:none;stroke:#73e600;stroke-miterlimit:10;stroke-width:2px;}.cls-2{fill:#051c4f;}.cls-3{fill:#73e600;}</style></defs><title>guides</title><line class="cls-1" x1="62.8" x2="62.8" y2="45.88"/><path class="cls-2" d="M1772.45,2288.27l-13.37,3.44a0.48,0.48,0,0,0,.12.95h0.12l13.37-3.44A0.48,0.48,0,1,0,1772.45,2288.27Zm0,2.61-13.37,3.44a0.48,0.48,0,0,0,.12.95l0.12,0,13.37-3.44A0.48,0.48,0,0,0,1772.45,2290.88Zm22.72-22.82-19.38-5h0l-0.06,0h-0.27l-19.46,5a0.48,0.48,0,0,0-.36.47v31.23a0.48,0.48,0,0,0,.19.38,0.49,0.49,0,0,0,.29.1h0.12l19.08-4.91,0.06,0,12.92,9.54a0.49,0.49,0,0,0,.29.09,0.49,0.49,0,0,0,.22-0.05,0.48,0.48,0,0,0,.26-0.43v-2l1.58,0.83a0.48,0.48,0,0,0,.47,0,0.48,0.48,0,0,0,.23-0.41v-1.64l1.36,0.51a0.5,0.5,0,0,0,.17,0,0.47,0.47,0,0,0,.28-0.09,0.48,0.48,0,0,0,.21-0.4v-1.5l1.55,0.39H1795a0.49,0.49,0,0,0,.3-0.1,0.48,0.48,0,0,0,.18-0.38v-31.23A0.48,0.48,0,0,0,1795.16,2268.06Zm-20.07,26.31-18.49,4.76V2268.9l18.49-4.76v30.23Zm13,9.17-12-8.87v-30.18l12,9v30Zm2.29-1.42-1.33-.69v-28.15a0.48,0.48,0,0,0-.19-0.39l-8-6,9.48,5.07v30.14Zm2-1.48-1-.39v-28.56a0.48,0.48,0,0,0-.25-0.42l-8.59-4.6,9.89,3.77v30.2Zm2.15-1.5-1.18-.29V2270.1a0.48,0.48,0,0,0-.31-0.45l-9.24-3.52,10.73,2.76v30.23Zm-35.83-13.43v0a0.42,0.42,0,0,0,0,.09h0l0,0h0l0,0.05,0,0h0l0.07,0h0l0.09,0h0.25l13.37-3.44,0.11,0h0l0.09-.07v0a0.41,0.41,0,0,0,.07-0.09h0a0.47,0.47,0,0,0,0-.11h0v-14.67a0.48,0.48,0,0,0-.6-0.47l-13.37,3.44a0.49,0.49,0,0,0-.36.47v14.58h0A0.48,0.48,0,0,0,1758.73,2285.7Zm1.67-.9,5.57-7.5,5.57,4.64Zm11.69-3.66-5.54-4.62,5.54-7.47v12.09Zm-0.72-12.74-5.57,7.51-5.57-4.64Zm-11.69,3.66,5.54,4.62-5.54,7.47v-12.09Z" transform="translate(-1755.64 -2263.03)"/><path class="cls-3" d="M1790.4,2302.11l-1.33-.69v-28.15a0.48,0.48,0,0,0-.19-0.39l-8-6,9.48,5.07v30.14Z" transform="translate(-1755.64 -2263.03)"/><path class="cls-3" d="M1794.56,2299.13l-1.18-.29V2270.1a0.48,0.48,0,0,0-.31-0.45l-9.24-3.52,10.73,2.76v30.23Z" transform="translate(-1755.64 -2263.03)"/></svg>