<svg id="Capa_1" data-name="Capa 1" xmlns="http://www.w3.org/2000/svg" viewBox="0 0 83.91 83.91"><defs><style>.cls-1{fill:#fff;}.cls-2,.cls-4{fill:#051c4f;}.cls-3{fill:#73e600;}.cls-4{font-size:16px;font-family:Open Sans;}</style></defs><title>project2</title><rect class="cls-1" width="83.91" height="83.91"/><path class="cls-2" d="M-254,1974.8a12.28,12.28,0,0,0-12.27-12.27,12.28,12.28,0,0,0-12.27,12.27,12.28,12.28,0,0,0,12.27,12.27A12.28,12.28,0,0,0-254,1974.8Zm-12.27,11.06a11.07,11.07,0,0,1-11.06-11.06,11.07,11.07,0,0,1,11.06-11.06,11.07,11.07,0,0,1,11.06,11.06A11.07,11.07,0,0,1-266.27,1985.86Z" transform="translate(306.36 -1948.97)"/><path class="cls-2" d="M-246,2006.28l-8-17.56a3.47,3.47,0,0,1,.64-1,5.64,5.64,0,0,1,1.86-1,5,5,0,0,0,2.72-1.82,5,5,0,0,0,.21-3.23,5.68,5.68,0,0,1-.07-2.14,5.51,5.51,0,0,1,1.1-1.74,5,5,0,0,0,1.46-3,5,5,0,0,0-1.46-3,5.48,5.48,0,0,1-1.1-1.74,5.68,5.68,0,0,1,.07-2.14,5,5,0,0,0-.21-3.23,5,5,0,0,0-2.72-1.82,5.64,5.64,0,0,1-1.86-1,5.64,5.64,0,0,1-1-1.86,5,5,0,0,0-1.82-2.72,3.15,3.15,0,0,0-1.61-.38,11.36,11.36,0,0,0-1.62.16,9.86,9.86,0,0,1-1.46.15,2.67,2.67,0,0,1-.68-0.08,5.55,5.55,0,0,1-1.75-1.1,5,5,0,0,0-3-1.46,5,5,0,0,0-3,1.46,5.5,5.5,0,0,1-1.74,1.1,2.67,2.67,0,0,1-.68.08,9.89,9.89,0,0,1-1.46-.15,11.32,11.32,0,0,0-1.62-.16,3.13,3.13,0,0,0-1.6.38,5,5,0,0,0-1.82,2.72,5.61,5.61,0,0,1-1,1.86,5.62,5.62,0,0,1-1.87,1,5,5,0,0,0-2.72,1.82,4.93,4.93,0,0,0-.21,3.23,5.76,5.76,0,0,1,.07,2.14,5.51,5.51,0,0,1-1.1,1.74,5,5,0,0,0-1.46,3,5,5,0,0,0,1.46,3,5.55,5.55,0,0,1,1.1,1.74,5.75,5.75,0,0,1-.07,2.14,4.92,4.92,0,0,0,.21,3.23,5,5,0,0,0,2.72,1.82,5.63,5.63,0,0,1,1.87,1,3.6,3.6,0,0,1,.67,1.08l-8,17.49a0.61,0.61,0,0,0,.06.61,0.6,0.6,0,0,0,.57.24l7-.92,3.91,5.93a0.6,0.6,0,0,0,.51.27h0a0.6,0.6,0,0,0,.5-0.35l7.6-16.6,7.6,16.6a0.6,0.6,0,0,0,.5.35h0a0.6,0.6,0,0,0,.51-0.27l3.91-5.93,7,0.92a0.61,0.61,0,0,0,.57-0.24A0.6,0.6,0,0,0-246,2006.28Zm-28.49,4.29-3.51-5.33a0.6,0.6,0,0,0-.59-0.27l-6.33.82,7.08-15.46a3.91,3.91,0,0,0,1.51,2,3.11,3.11,0,0,0,1.6.38,11.15,11.15,0,0,0,1.62-.16,10.19,10.19,0,0,1,1.46-.15,2.67,2.67,0,0,1,.68.08,5.48,5.48,0,0,1,1.74,1.1,7.68,7.68,0,0,0,2,1.26Zm8.25-16.79a4.14,4.14,0,0,1-2.22-1.2,6.4,6.4,0,0,0-2.19-1.32,3.83,3.83,0,0,0-1-.12,11.31,11.31,0,0,0-1.64.16,10.19,10.19,0,0,1-1.45.15,2,2,0,0,1-1-.21,4.12,4.12,0,0,1-1.29-2.11,6.55,6.55,0,0,0-1.26-2.28,6.48,6.48,0,0,0-2.28-1.26,4.14,4.14,0,0,1-2.11-1.3,4.12,4.12,0,0,1-.06-2.44,6.63,6.63,0,0,0,0-2.63A6.4,6.4,0,0,0-284,1977a4.16,4.16,0,0,1-1.2-2.23,4.15,4.15,0,0,1,1.2-2.22,6.4,6.4,0,0,0,1.32-2.19,6.61,6.61,0,0,0,0-2.63,4.12,4.12,0,0,1,.06-2.45,4.14,4.14,0,0,1,2.11-1.29,6.52,6.52,0,0,0,2.28-1.26,6.52,6.52,0,0,0,1.26-2.28,4.12,4.12,0,0,1,1.29-2.11,2,2,0,0,1,1-.21,10.21,10.21,0,0,1,1.45.15,11.66,11.66,0,0,0,1.64.16,3.83,3.83,0,0,0,1-.12,6.42,6.42,0,0,0,2.19-1.32,4.16,4.16,0,0,1,2.22-1.2A4.16,4.16,0,0,1-264,1957a6.41,6.41,0,0,0,2.19,1.32,3.83,3.83,0,0,0,1,.12,11.71,11.71,0,0,0,1.64-.16,10.2,10.2,0,0,1,1.44-.15,2,2,0,0,1,1,.21,4.13,4.13,0,0,1,1.3,2.11,6.5,6.5,0,0,0,1.26,2.28,6.5,6.5,0,0,0,2.28,1.26,4.14,4.14,0,0,1,2.11,1.29,4.12,4.12,0,0,1,.07,2.45,6.59,6.59,0,0,0,0,2.63,6.35,6.35,0,0,0,1.32,2.19,4.16,4.16,0,0,1,1.2,2.22,4.18,4.18,0,0,1-1.2,2.23,6.35,6.35,0,0,0-1.32,2.18,6.6,6.6,0,0,0,0,2.63,4.11,4.11,0,0,1-.07,2.44,4.14,4.14,0,0,1-2.11,1.3,6.47,6.47,0,0,0-2.28,1.26,6.51,6.51,0,0,0-1.26,2.28,4.13,4.13,0,0,1-1.3,2.11,2,2,0,0,1-1,.21,10.18,10.18,0,0,1-1.44-.15,11.36,11.36,0,0,0-1.64-.16,3.81,3.81,0,0,0-1,.12,6.38,6.38,0,0,0-2.19,1.32A4.15,4.15,0,0,1-266.27,1993.77Zm12.35,11.19a0.6,0.6,0,0,0-.58.27l-3.52,5.33-7.22-15.78a7.62,7.62,0,0,0,2-1.26,5.53,5.53,0,0,1,1.75-1.1,2.67,2.67,0,0,1,.68-0.08,10.16,10.16,0,0,1,1.46.15,11.19,11.19,0,0,0,1.62.16,3.13,3.13,0,0,0,1.61-.38,4,4,0,0,0,1.53-2l7.06,15.52Z" transform="translate(306.36 -1948.97)"/><path class="cls-2" d="M-258.46,1970.47a0.61,0.61,0,0,0-.85-0.08l-9.85,8.11-3.85-4.41a0.6,0.6,0,0,0-.85-0.06,0.6,0.6,0,0,0-.06.85l4.24,4.85a0.61,0.61,0,0,0,.46.21,0.61,0.61,0,0,0,.39-0.14l10.3-8.48A0.61,0.61,0,0,0-258.46,1970.47Z" transform="translate(306.36 -1948.97)"/><path class="cls-3" d="M-253.91,2004.93a0.61,0.61,0,0,0-.59.27l-3.51,5.33-7.22-15.77a7.65,7.65,0,0,0,2-1.27,5.49,5.49,0,0,1,1.74-1.1,2.63,2.63,0,0,1,.68-0.08,10.55,10.55,0,0,1,1.46.15,11.17,11.17,0,0,0,1.62.16,3.13,3.13,0,0,0,1.6-.37,4,4,0,0,0,1.53-2l7.06,15.52Z" transform="translate(306.36 -1948.97)"/><path class="cls-3" d="M-274.52,2010.5l-3.51-5.33a0.6,0.6,0,0,0-.59-0.27l-6.33.82,7.08-15.46a3.91,3.91,0,0,0,1.51,2,3.11,3.11,0,0,0,1.6.37,11,11,0,0,0,1.62-.16,10.37,10.37,0,0,1,1.46-.15,2.62,2.62,0,0,1,.68.08,5.44,5.44,0,0,1,1.74,1.1,7.77,7.77,0,0,0,2,1.26Z" transform="translate(306.36 -1948.97)"/><text class="cls-4" transform="translate(2.43 76.23)">Destacado</text></svg>