<svg id="Capa_1" data-name="Capa 1" xmlns="http://www.w3.org/2000/svg" viewBox="0 0 83.91 83.91"><defs><style>.cls-1{fill:#fff;}.cls-2{fill:#73e600;}.cls-3,.cls-4{fill:#051c4f;}.cls-4{font-size:16px;font-family:Open Sans;}</style></defs><title>project1</title><rect class="cls-1" width="83.91" height="83.91"/><path class="cls-2" d="M-274.48,1972.63c7.74,7.74,15.34.13,7.6-7.6a15.32,15.32,0,0,0-12-4.44A15.32,15.32,0,0,0-274.48,1972.63Z" transform="translate(306.36 -1948.97)"/><path class="cls-3" d="M-268.05,1977.08h0c-2.39,0-5-1.27-7.29-3.59a16.56,16.56,0,0,1-4.79-13,1.21,1.21,0,0,1,1.11-1.11,16.52,16.52,0,0,1,13,4.79c3.15,3.15,4.33,6.74,3.14,9.6A5.44,5.44,0,0,1-268.05,1977.08Zm-9.71-15.32a14.13,14.13,0,0,0,4.13,10c1.86,1.86,3.84,2.88,5.58,2.88h0a3,3,0,0,0,2.93-1.81c0.62-1.48.25-4.09-2.62-7a14,14,0,0,0-10-4.13h0Z" transform="translate(306.36 -1948.97)"/><path class="cls-2" d="M-250.08,1967c-7.74,7.74-15.34.14-7.6-7.6a15.31,15.31,0,0,1,12-4.44A15.31,15.31,0,0,1-250.08,1967Z" transform="translate(306.36 -1948.97)"/><path class="cls-3" d="M-256.51,1971.46a5.44,5.44,0,0,1-5.17-3.3c-1.18-2.86,0-6.45,3.14-9.6a16.52,16.52,0,0,1,13-4.79,1.21,1.21,0,0,1,1.11,1.11,16.56,16.56,0,0,1-4.79,13C-251.54,1970.19-254.13,1971.46-256.51,1971.46Zm9.68-15.32a14,14,0,0,0-10,4.13c-2.87,2.87-3.23,5.48-2.62,7a3,3,0,0,0,2.93,1.81c1.74,0,3.72-1,5.58-2.88a14.12,14.12,0,0,0,4.13-10h0Z" transform="translate(306.36 -1948.97)"/><path class="cls-3" d="M-272,1998.34a1.21,1.21,0,0,1-1.21-1.21,4.78,4.78,0,0,1,4.78-4.78h13.85a2.15,2.15,0,0,0,2.15-2.15,2.15,2.15,0,0,0-2.15-2.15h-9.76a15.05,15.05,0,0,1-6.7-1.58l-2.52-1.26a12.57,12.57,0,0,0-6.54-1.29l-7.55.56a1.21,1.21,0,0,1-1.3-1.12,1.21,1.21,0,0,1,1.12-1.3l7.55-.56a15,15,0,0,1,7.8,1.54l2.52,1.26a12.62,12.62,0,0,0,5.61,1.32h9.76a4.57,4.57,0,0,1,4.57,4.57,4.57,4.57,0,0,1-4.57,4.57h-13.85a2.36,2.36,0,0,0-2.36,2.36A1.21,1.21,0,0,1-272,1998.34Z" transform="translate(306.36 -1948.97)"/><path class="cls-3" d="M-262.51,2008.48a13.83,13.83,0,0,1-4.88-.89l-20.8-7.86a1.21,1.21,0,0,1-.7-1.56,1.21,1.21,0,0,1,1.56-.7l20.8,7.86a11.49,11.49,0,0,0,10.09-1l23.85-14.87a2,2,0,0,0,.91-1.38,2,2,0,0,0-.46-1.59,2,2,0,0,0-2.31-.51l-16.51,6.35a1.21,1.21,0,0,1-1.56-.7,1.21,1.21,0,0,1,.7-1.56l16.45-6.32a4.36,4.36,0,0,1,5.07,1.17,4.39,4.39,0,0,1,1,3.54,4.39,4.39,0,0,1-2,3.08l-23.85,14.87A13.9,13.9,0,0,1-262.51,2008.48Z" transform="translate(306.36 -1948.97)"/><path class="cls-3" d="M-287.77,2004.65h-10.57a1.21,1.21,0,0,1-1.21-1.21,1.21,1.21,0,0,1,1.21-1.21H-289V1981h-9.36a1.21,1.21,0,0,1-1.21-1.21,1.21,1.21,0,0,1,1.21-1.21h10.57a1.21,1.21,0,0,1,1.21,1.21v23.69A1.21,1.21,0,0,1-287.77,2004.65Z" transform="translate(306.36 -1948.97)"/><path class="cls-3" d="M-291.64,2001h-2.81a1.21,1.21,0,0,1-1.21-1.21,1.21,1.21,0,0,1,1.21-1.21h2.81a1.21,1.21,0,0,1,1.21,1.21A1.21,1.21,0,0,1-291.64,2001Z" transform="translate(306.36 -1948.97)"/><path class="cls-3" d="M-261.54,1988.06a1.21,1.21,0,0,1-1.21-1.21v-3a12.84,12.84,0,0,0-3.79-9.14l-4.36-4.36a1.21,1.21,0,0,1,0-1.71,1.21,1.21,0,0,1,1.71,0l4.36,4.36a15.25,15.25,0,0,1,4.5,10.85v3A1.21,1.21,0,0,1-261.54,1988.06Z" transform="translate(306.36 -1948.97)"/><path class="cls-3" d="M-261.54,1983.22a1.21,1.21,0,0,1-1.21-1.21v-5.28a15.25,15.25,0,0,1,4.49-10.85l4.36-4.36a1.21,1.21,0,0,1,1.71,0,1.21,1.21,0,0,1,0,1.71l-4.36,4.36a12.85,12.85,0,0,0-3.79,9.14V1982A1.21,1.21,0,0,1-261.54,1983.22Z" transform="translate(306.36 -1948.97)"/><text class="cls-4" transform="translate(21.31 76.1)">Unido</text></svg>