<svg id="Capa_1" data-name="Capa 1" xmlns="http://www.w3.org/2000/svg" viewBox="0 0 83.91 83.91"><defs><style>.cls-1{fill:#fff;}.cls-2{fill:#73e600;}.cls-3,.cls-4{fill:#051c4f;}.cls-4{font-size:16px;font-family:Open Sans;}</style></defs><title>project3</title><rect class="cls-1" width="83.91" height="83.91"/><path class="cls-2" d="M-263.93,1954.39a10.32,10.32,0,0,0-9.93,9.93c0,4.14,2.2,6.57,4.74,9.39a28.13,28.13,0,0,1,5.18,7.24,28.13,28.13,0,0,1,5.18-7.24c2.55-2.82,4.74-5.25,4.74-9.39A10.32,10.32,0,0,0-263.93,1954.39Z" transform="translate(306.36 -1948.97)"/><path class="cls-3" d="M-263.93,2010.29A20.36,20.36,0,0,1-284.26,1990a20.21,20.21,0,0,1,11.4-18.27l0.85,1.74A18.29,18.29,0,0,0-282.33,1990a18.42,18.42,0,0,0,18.4,18.4,18.42,18.42,0,0,0,18.4-18.4,18.28,18.28,0,0,0-10.37-16.56l0.85-1.74A20.47,20.47,0,0,1-243.6,1990,20.36,20.36,0,0,1-263.93,2010.29Z" transform="translate(306.36 -1948.97)"/><path class="cls-3" d="M-264,1984.87a1,1,0,0,1-.93-0.69c-1.2-4-3.48-6.52-5.69-9-2.7-3-5.24-5.8-5.24-10.69A12.17,12.17,0,0,1-264,1952.66a12.17,12.17,0,0,1,11.86,11.86c0,4.89-2.55,7.7-5.24,10.69-2.21,2.45-4.5,5-5.69,9A1,1,0,0,1-264,1984.87Zm0-30.27a10.32,10.32,0,0,0-9.93,9.93c0,4.14,2.2,6.57,4.74,9.39a28.13,28.13,0,0,1,5.18,7.24,28.13,28.13,0,0,1,5.18-7.24c2.54-2.82,4.74-5.25,4.74-9.39A10.32,10.32,0,0,0-264,1954.6Z" transform="translate(306.36 -1948.97)"/><path class="cls-3" d="M-263.95,1969.1a4.61,4.61,0,0,1-4.61-4.58,4.61,4.61,0,0,1,4.61-4.58,4.61,4.61,0,0,1,4.62,4.58A4.61,4.61,0,0,1-263.95,1969.1Zm0-7.23a2.67,2.67,0,0,0-2.68,2.65,2.67,2.67,0,0,0,2.68,2.65,2.67,2.67,0,0,0,2.68-2.65A2.67,2.67,0,0,0-263.95,1961.86Z" transform="translate(306.36 -1948.97)"/><path class="cls-3" d="M-258.43,1983.37l-1.37-1.37,2.42-2.42a1,1,0,0,1,.68-0.28H-247v1.94h-9.28Z" transform="translate(306.36 -1948.97)"/><path class="cls-3" d="M-250.64,1993.34h-2.42a1,1,0,0,1-.68-0.28l-4.56-4.56H-264a1,1,0,0,1-1-1v-1.21H-263v0.24h5.08a1,1,0,0,1,.68.28l4.56,4.56H-251l2.14-2.14a1,1,0,0,1,.68-0.28h3.63v1.94h-3.23l-2.14,2.14A1,1,0,0,1-250.64,1993.34Z" transform="translate(306.36 -1948.97)"/><path class="cls-3" d="M-259.12,2005.45a1,1,0,0,1-.43-0.1l-2.42-1.21a1,1,0,0,1-.53-0.87V2000l-1.85-1.85h-3.23a1,1,0,0,1-1-1v-3.63a1,1,0,0,1,.28-0.68l2.42-2.42a1,1,0,0,1,.68-0.28h4.85a1,1,0,0,1,.69.28l4.84,4.84a1,1,0,0,1,.28.68v4.84a1,1,0,0,1-.28.68l-3.63,3.63A1,1,0,0,1-259.12,2005.45Zm-1.45-2.78,1.26,0.63,2.86-2.85v-4l-4.27-4.28h-4l-1.85,1.85v2.26H-264a1,1,0,0,1,.68.28l2.42,2.42a1,1,0,0,1,.28.68v3Z" transform="translate(306.36 -1948.97)"/><path class="cls-3" d="M-280.91,1993.34h-2.42v-1.94h2l0.64-.64V1990a1,1,0,0,1,.28-0.68l2.42-2.42a1,1,0,0,1,.68-0.28h2.66v-1.45a2.67,2.67,0,0,0-2.66-2.66h-1.21a1,1,0,0,1-.68-0.28l-1.21-1.21,1.37-1.37,0.93,0.93h0.81a4.61,4.61,0,0,1,4.6,4.6v2.42a1,1,0,0,1-1,1h-3.23l-1.85,1.85v0.81a1,1,0,0,1-.28.68l-1.21,1.21A1,1,0,0,1-280.91,1993.34Z" transform="translate(306.36 -1948.97)"/><path class="cls-3" d="M-273.89,2005.69h-1.94v-3.63a1,1,0,0,1,.28-0.68l2.14-2.14v-0.41l-1.85-1.85h-6.86V1995h7.26a1,1,0,0,1,.68.28l2.42,2.42a1,1,0,0,1,.28.68v1.21a1,1,0,0,1-.28.68l-2.14,2.14v3.23Z" transform="translate(306.36 -1948.97)"/><ellipse class="cls-1" cx="42.39" cy="15.54" rx="2.68" ry="2.65"/><text class="cls-4" transform="translate(21.36 76.1)">Cerca</text></svg>