<svg id="Capa_1" data-name="Capa 1" xmlns="http://www.w3.org/2000/svg" viewBox="0 0 56.84 44.27"><defs><style>.cls-1{fill:#051c4f;}.cls-2{fill:#73e600;}.cls-3{fill:none;stroke:#73e600;stroke-miterlimit:10;stroke-width:2px;}</style></defs><title>proyects</title><path class="cls-1" d="M2384.58,1203.5V1187h-33.41v44.27h33.41v-10.13a5.27,5.27,0,0,1-1.21-3.15l-0.53-.27v11.81H2352.9v-40.79h29.94v11.28A15,15,0,0,1,2384.58,1203.5Z" transform="translate(-2351.16 -1187.04)"/><path class="cls-2" d="M2361.67,1210l-1.15-.61-2.13-3.58v-3.65l1.75-3.1L2363,1198l3.41-.64h1.83l1.73,1,2.63,2.58,0.12,1.34-0.12,3.42-1.24,1.9-1,.73-2.4,1-1.29.9-1,1.43-0.9,3-0.15,2.43,0.54,1.65,0.51,0.89s2.37,2.8.73,2.64a6.18,6.18,0,0,1-3.11-1.61l-2.14-2.42-0.64-2.82,0-3.19Z" transform="translate(-2351.16 -1187.04)"/><path class="cls-1" d="M2382.86,1213.24a1.08,1.08,0,0,1-.58-0.17,1,1,0,0,1-.43-1.2c0.26-.77,1.37-0.76,1.89-0.77a8.69,8.69,0,0,0,2.76-.32,6,6,0,0,0-2.07-4l-0.45-.4a4.62,4.62,0,0,1-1.3-1.59,10.25,10.25,0,0,0-.81-1.43l0,0.1a4,4,0,0,0-.44,1.69,0.48,0.48,0,1,1-1,0,4.87,4.87,0,0,1,.52-2.06c0.11-.25.21-0.51,0.31-0.79a0.48,0.48,0,0,1,.33-0.31,0.47,0.47,0,0,1,.44.11,7.52,7.52,0,0,1,1.5,2.27,3.74,3.74,0,0,0,1.07,1.29l0.47,0.42a6.9,6.9,0,0,1,2.39,5,0.48,0.48,0,0,1-.33.47l-0.14,0a9,9,0,0,1-3.21.43h0a1.85,1.85,0,0,0-1,.14s0,0,0,.06a0.12,0.12,0,0,0,.14,0,0.48,0.48,0,0,1,.68.67A1,1,0,0,1,2382.86,1213.24Z" transform="translate(-2351.16 -1187.04)"/><path class="cls-1" d="M2365.9,1220.68a0.48,0.48,0,0,1-.34-0.15c-1.86-1.93-1.47-4.71-1.32-5.76v0a7.8,7.8,0,0,1,3.08-5.39c2.32-1.73,5.79-2.4,9.54-1.83a1.75,1.75,0,0,0,2-.62,4,4,0,0,0,.23-0.41,3.33,3.33,0,0,1,.51-0.79,3.89,3.89,0,0,1,.42-0.37,1.45,1.45,0,0,0,.38-0.37,0.48,0.48,0,0,1,.84.45,2.16,2.16,0,0,1-.63.67,2.82,2.82,0,0,0-.31.27,2.35,2.35,0,0,0-.36.58,4.53,4.53,0,0,1-.29.51,2.71,2.71,0,0,1-2.89,1c-3.45-.52-6.75.1-8.83,1.65a6.89,6.89,0,0,0-2.71,4.76v0c-0.13.92-.47,3.37,1.06,5a0.48,0.48,0,0,1,0,.68A0.48,0.48,0,0,1,2365.9,1220.68Z" transform="translate(-2351.16 -1187.04)"/><path class="cls-1" d="M2376,1221.76a0.47,0.47,0,0,1-.36-0.16,0.48,0.48,0,0,1,0-.67,0.48,0.48,0,0,1,.2-0.1,4.88,4.88,0,0,0,2.5-4.56,3.68,3.68,0,0,0-3.7-3.36,0.48,0.48,0,0,1,0-1,4.63,4.63,0,0,1,4.65,4.24,5.76,5.76,0,0,1-3.09,5.53A0.6,0.6,0,0,1,2376,1221.76Zm0.19-.92a0.49,0.49,0,0,1,.17.12A0.44,0.44,0,0,0,2376.16,1220.84Z" transform="translate(-2351.16 -1187.04)"/><path class="cls-1" d="M2380.84,1217.11a2.28,2.28,0,0,1-1.1-.28,0.48,0.48,0,1,1,.44-0.85,1.39,1.39,0,0,0,.92.16,2.29,2.29,0,0,0,1.77-1.19l0.1-.16a1.54,1.54,0,0,1,1.22-.94,1.49,1.49,0,0,1,1,.46,2.12,2.12,0,0,0,.25.19,0.27,0.27,0,0,0,.37,0,0.51,0.51,0,0,0,0-.6,1.72,1.72,0,0,0-1.55-.67h-0.07a0.48,0.48,0,0,1-.43-0.53,0.48,0.48,0,0,1,.52-0.42h0.07a2.59,2.59,0,0,1,2.26,1.12,1.46,1.46,0,0,1-.14,1.76,1.21,1.21,0,0,1-1.53.17,2.42,2.42,0,0,1-.4-0.29,0.92,0.92,0,0,0-.36-0.23h0a0.92,0.92,0,0,0-.43.48l-0.12.19a3.21,3.21,0,0,1-2.44,1.62A2.54,2.54,0,0,1,2380.84,1217.11Z" transform="translate(-2351.16 -1187.04)"/><path class="cls-1" d="M2362.78,1204.61h-0.17a0.48,0.48,0,0,1,0-1h0.2A0.48,0.48,0,0,1,2362.78,1204.61Z" transform="translate(-2351.16 -1187.04)"/><path class="cls-1" d="M2376.32,1223.77c-2.62,0-6.54-.11-7.39-0.25l-0.93-.12a8.58,8.58,0,0,1-7.48-5.48,8.2,8.2,0,0,1-.65-3.66,14.09,14.09,0,0,1,1.25-4.21c0.27-.56.59-1.09,0.9-1.61a17.19,17.19,0,0,0,.93-1.67,2.38,2.38,0,0,0,.3-2,0.48,0.48,0,1,1,.76-0.58c0.6,0.78.23,2-.2,2.94a18,18,0,0,1-1,1.77c-0.3.5-.61,1-0.86,1.53a13,13,0,0,0-1.16,3.89,7.22,7.22,0,0,0,.58,3.18,7.62,7.62,0,0,0,6.71,4.91l1,0.13a92,92,0,0,0,9.41.18l0.2,0a2.37,2.37,0,0,0,1-.25,0.58,0.58,0,0,0,0-.64,2.4,2.4,0,0,0-2.08-.1,0.48,0.48,0,0,1-.3-0.91c1.06-.35,2.47-0.33,3.1.38a1.45,1.45,0,0,1,.1,1.69,2.09,2.09,0,0,1-1.72.79l-0.18,0C2378.32,1223.75,2377.43,1223.77,2376.32,1223.77Z" transform="translate(-2351.16 -1187.04)"/><path class="cls-1" d="M2361.22,1210.61a0.49,0.49,0,0,1-.28-0.09c-5.36-3.84-2.18-9.55-1.79-10.19a7.89,7.89,0,0,1,6.74-3.5H2366a7.49,7.49,0,0,1,6.52,3.47A6.21,6.21,0,0,1,2370,1209a0.48,0.48,0,0,1-.65-0.21,0.48,0.48,0,0,1,.21-0.64,5.26,5.26,0,0,0,2.1-7.42,6.68,6.68,0,0,0-5.81-3,7,7,0,0,0-5.93,3c-0.55.92-3,5.65,1.53,8.93A0.48,0.48,0,0,1,2361.22,1210.61Z" transform="translate(-2351.16 -1187.04)"/><path class="cls-1" d="M2373,1213.41a0.45,0.45,0,0,1-.25-0.07,0.48,0.48,0,0,1-.16-0.66,1.56,1.56,0,0,1,.93-0.59,0.48,0.48,0,1,1,.28.91,1,1,0,0,0-.4.18A0.47,0.47,0,0,1,2373,1213.41Z" transform="translate(-2351.16 -1187.04)"/><path class="cls-1" d="M2382.82,1212a3,3,0,0,1-1.64-.47,0.48,0.48,0,0,1,.53-0.8,2.08,2.08,0,0,0,1.58.26,0.48,0.48,0,0,1,.2.93A3.32,3.32,0,0,1,2382.82,1212Z" transform="translate(-2351.16 -1187.04)"/><path class="cls-1" d="M2381.51,1202l-0.17,0a0.52,0.52,0,0,1,.4-1A0.52,0.52,0,0,1,2381.51,1202Z" transform="translate(-2351.16 -1187.04)"/><line class="cls-3" x1="55.84" x2="55.84" y2="44.27"/></svg>