<svg id="Capa_1" data-name="Capa 1" xmlns="http://www.w3.org/2000/svg" viewBox="0 0 89.42 89.42"><defs><style>.cls-1,.cls-2{fill:#fff;}.cls-2{stroke:#706f6f;stroke-miterlimit:10;opacity:0.2;}.cls-3{fill:#73e600;}.cls-4{fill:#051c4f;}</style></defs><title>search</title><circle class="cls-1" cx="44.71" cy="44.71" r="37.66"/><circle class="cls-2" cx="44.71" cy="44.71" r="44.21"/><circle class="cls-1" cx="42.1" cy="40.29" r="8.4"/><path class="cls-3" d="M774.91,2096.64h0a1.59,1.59,0,0,1-2.24,0l-4.81-4.81a1.59,1.59,0,0,1,0-2.24h0a1.59,1.59,0,0,1,2.24,0l4.81,4.81A1.59,1.59,0,0,1,774.91,2096.64Z" transform="translate(-716.02 -2039.55)"/><path class="cls-4" d="M758.1,2073.26a6.57,6.57,0,0,0-6.56,6.56,0.44,0.44,0,0,0,.88,0,5.69,5.69,0,0,1,5.69-5.69A0.44,0.44,0,0,0,758.1,2073.26Z" transform="translate(-716.02 -2039.55)"/><path class="cls-4" d="M775.39,2094l-4.81-4.81a2.18,2.18,0,0,0-1.55-.64l-0.31,0-2.65-2.65a10.06,10.06,0,1,0-1.86,1.86l2.65,2.65a2.18,2.18,0,0,0,.62,1.85l4.81,4.81A2.19,2.19,0,1,0,775.39,2094Zm-17.3-5a9.19,9.19,0,1,1,9.19-9.19A9.2,9.2,0,0,1,758.1,2089Zm9.11,0.54-2.31-2.31c0.21-.2.42-0.4,0.62-0.62l2.31,2.31A2.22,2.22,0,0,0,767.21,2089.55Zm7.57,6.95a1.31,1.31,0,0,1-1.86,0l-4.81-4.81a1.31,1.31,0,1,1,1.86-1.86l4.81,4.81A1.31,1.31,0,0,1,774.77,2096.5Z" transform="translate(-716.02 -2039.55)"/></svg>