<?xml version="1.0" encoding="UTF-8" standalone="no"?>
<svg
   xmlns:dc="http://purl.org/dc/elements/1.1/"
   xmlns:cc="http://creativecommons.org/ns#"
   xmlns:rdf="http://www.w3.org/1999/02/22-rdf-syntax-ns#"
   xmlns:svg="http://www.w3.org/2000/svg"
   xmlns="http://www.w3.org/2000/svg"
   id="svg1163"
   version="1.1"
   viewBox="0 0 11.833577 11.832167"
   height="11.832167mm"
   width="11.833577mm">
  <defs
     id="defs1157" />
  <metadata
     id="metadata1160">
    <rdf:RDF>
      <cc:Work
         rdf:about="">
        <dc:format>image/svg+xml</dc:format>
        <dc:type
           rdf:resource="http://purl.org/dc/dcmitype/StillImage" />
        <dc:title></dc:title>
      </cc:Work>
    </rdf:RDF>
  </metadata>
  <g
     transform="translate(-16.804622,24.379869)"
     id="layer1">
    <g
       id="g913"
       transform="matrix(0.35277777,0,0,-0.35277777,73.327381,165.19434)">
      <path
         d="m 0,0 c -97.316,0 -176.48,-79.164 -176.48,-176.48 0,-97.315 79.164,-176.479 176.48,-176.479 97.316,0 176.479,79.164 176.479,176.479 C 176.479,-79.164 97.316,0 0,0 m 0,-376.18 c -110.117,0 -199.7,89.582 -199.7,199.7 0,110.117 89.583,199.701 199.7,199.701 110.117,0 199.7,-89.584 199.7,-199.701 0,-110.118 -89.583,-199.7 -199.7,-199.7"
         style="fill:#ededed;fill-opacity:1;fill-rule:nonzero;stroke:none"
         id="path915" />
    </g>
    <g
       id="g917"
       transform="matrix(0.35277777,0,0,-0.35277777,55.502968,213.51043)">
      <path
         d="m 0,0 c 0,-9.67 -7.838,-17.51 -17.508,-17.51 -9.669,0 -17.509,7.84 -17.509,17.51 0,9.67 7.84,17.508 17.509,17.508 C -7.838,17.508 0,9.67 0,0"
         style="fill:#ededed;fill-opacity:1;fill-rule:nonzero;stroke:none"
         id="path919" />
    </g>
    <g
       id="g921"
       transform="matrix(0.35277777,0,0,-0.35277777,101.03285,214.21634)">
      <path
         d="m 0,0 c 0,-9.671 -7.84,-17.509 -17.509,-17.509 -9.67,0 -17.509,7.838 -17.509,17.509 0,9.669 7.839,17.509 17.509,17.509 C -7.84,17.509 0,9.669 0,0"
         style="fill:#ededed;fill-opacity:1;fill-rule:nonzero;stroke:none"
         id="path923" />
    </g>
    <g
       id="g925"
       transform="matrix(0.35277777,0,0,-0.35277777,67.775611,261.26771)">
      <path
         d="m 0,0 -21.565,8.617 c 0.34,0.852 35.397,85.162 133.881,48.596 l -8.073,-21.77 C 26.701,64.197 1.043,2.631 0,0"
         style="fill:#ededed;fill-opacity:1;fill-rule:nonzero;stroke:none"
         id="path927" />
    </g>
    <g
       id="g905"
       transform="matrix(0.35277777,0,0,-0.35277777,23.583952,-22.491097)">
      <path
         d="m 0,0 -0.299,3.163 c -0.705,0.121 -1.424,0.182 -2.146,0.182 -0.722,0 -1.44,-0.061 -2.146,-0.182 L -4.884,0.065 c -0.012,-0.421 -0.291,-0.806 -0.717,-0.933 -0.355,-0.106 -0.693,-0.225 -1.014,-0.356 l -0.044,-0.019 c -0.334,-0.139 -0.66,-0.293 -0.975,-0.461 -0.354,-0.213 -0.818,-0.191 -1.155,0.088 l -2.449,2.026 c -0.197,-0.138 -0.388,-0.282 -0.576,-0.431 -0.363,-0.289 -0.719,-0.607 -1.069,-0.957 -0.348,-0.349 -0.668,-0.706 -0.956,-1.068 -0.149,-0.187 -0.293,-0.38 -0.431,-0.575 l 2.026,-2.45 c 0.252,-0.306 0.309,-0.745 0.11,-1.116 -0.177,-0.326 -0.338,-0.666 -0.482,-1.014 l -0.002,10e-4 c -0.138,-0.334 -0.263,-0.688 -0.374,-1.06 l -0.002,10e-4 c -0.113,-0.38 -0.447,-0.672 -0.866,-0.711 l -3.163,-0.3 c -0.041,-0.235 -0.076,-0.472 -0.103,-0.712 -0.053,-0.462 -0.08,-0.941 -0.08,-1.433 0,-0.492 0.027,-0.972 0.08,-1.433 0.027,-0.241 0.062,-0.478 0.103,-0.714 l 3.098,-0.292 c 0.421,-0.012 0.806,-0.292 0.933,-0.717 0.105,-0.356 0.225,-0.694 0.355,-1.014 l 0.02,-0.044 c 0.138,-0.335 0.293,-0.661 0.462,-0.975 0.212,-0.354 0.189,-0.819 -0.089,-1.155 l -2.026,-2.45 c 0.138,-0.196 0.282,-0.388 0.431,-0.575 0.288,-0.363 0.608,-0.72 0.956,-1.069 0.35,-0.349 0.706,-0.668 1.069,-0.957 0.188,-0.148 0.379,-0.293 0.576,-0.43 l 2.449,2.026 h 10e-4 c 0.305,0.252 0.744,0.309 1.114,0.11 0.32,-0.172 0.643,-0.329 0.964,-0.463 l 0.051,-0.02 c 0.341,-0.141 0.695,-0.267 1.058,-0.375 v -0.002 c 0.379,-0.113 0.672,-0.447 0.711,-0.867 l 0.299,-3.162 c 0.705,-0.121 1.424,-0.182 2.146,-0.182 0.722,0 1.441,0.061 2.146,0.182 l 0.293,3.097 c 0.013,0.422 0.291,0.807 0.717,0.934 0.355,0.106 0.694,0.225 1.015,0.356 l 0.043,0.019 c 0.334,0.139 0.66,0.293 0.975,0.461 0.355,0.213 0.819,0.19 1.155,-0.088 l 2.45,-2.026 c 0.195,0.137 0.387,0.282 0.576,0.43 0.362,0.289 0.719,0.608 1.068,0.957 0.349,0.348 0.668,0.706 0.956,1.069 0.15,0.187 0.293,0.38 0.431,0.575 l -2.027,2.45 h 0.001 c -0.251,0.305 -0.309,0.744 -0.11,1.115 0.182,0.336 0.344,0.674 0.484,1.012 0.138,0.334 0.264,0.689 0.375,1.061 h 10e-4 c 0.114,0.379 0.448,0.672 0.867,0.711 l 3.163,0.298 c 0.041,0.236 0.075,0.474 0.102,0.715 0.053,0.459 0.08,0.938 0.08,1.432 0,0.484 -0.026,0.953 -0.077,1.406 l -0.003,0.026 c -0.027,0.24 -0.061,0.478 -0.102,0.713 L 9.035,-8.977 C 8.614,-8.964 8.229,-8.685 8.103,-8.26 7.997,-7.903 7.878,-7.565 7.747,-7.245 l -0.02,0.044 c -0.138,0.335 -0.293,0.66 -0.461,0.975 -0.212,0.354 -0.19,0.819 0.087,1.155 l 2.027,2.45 C 9.242,-2.426 9.099,-2.234 8.949,-2.046 8.661,-1.684 8.342,-1.326 7.993,-0.978 7.644,-0.629 7.287,-0.31 6.925,-0.021 6.736,0.128 6.544,0.272 6.349,0.41 L 3.899,-1.616 H 3.898 C 3.594,-1.868 3.154,-1.925 2.784,-1.726 2.448,-1.544 2.11,-1.384 1.772,-1.243 1.438,-1.104 1.084,-0.979 0.711,-0.868 v 0.002 C 0.332,-0.753 0.04,-0.419 0,0 M 1.63,4.042 1.933,0.843 C 2.133,0.771 2.334,0.692 2.534,0.61 2.735,0.526 2.932,0.44 3.125,0.349 L 5.643,2.432 C 5.992,2.721 6.48,2.733 6.84,2.493 7.296,2.208 7.742,1.893 8.173,1.55 8.609,1.202 9.025,0.833 9.414,0.444 c 0.39,-0.389 0.759,-0.804 1.105,-1.242 0.35,-0.439 0.67,-0.892 0.961,-1.359 0.234,-0.376 0.189,-0.848 -0.079,-1.17 L 9.319,-5.845 c 0.092,-0.193 0.18,-0.388 0.261,-0.587 l 0.023,-0.057 c 0.074,-0.182 0.144,-0.365 0.21,-0.549 l 3.251,-0.307 c 0.442,-0.041 0.789,-0.363 0.883,-0.773 h 0.001 c 0.125,-0.539 0.22,-1.086 0.283,-1.637 l 0.003,-0.031 c 0.061,-0.545 0.093,-1.09 0.093,-1.629 0,-0.549 -0.033,-1.102 -0.096,-1.656 l -10e-4,-0.004 h 10e-4 c -0.063,-0.551 -0.158,-1.098 -0.283,-1.637 -0.102,-0.451 -0.495,-0.76 -0.936,-0.778 L 9.813,-15.792 C 9.741,-15.993 9.664,-16.193 9.581,-16.394 9.498,-16.595 9.41,-16.792 9.319,-16.985 l 2.082,-2.518 c 0.289,-0.35 0.302,-0.838 0.063,-1.197 -0.286,-0.456 -0.602,-0.903 -0.945,-1.332 -0.346,-0.438 -0.715,-0.854 -1.105,-1.242 -0.389,-0.389 -0.805,-0.758 -1.241,-1.106 -0.44,-0.349 -0.895,-0.67 -1.361,-0.961 -0.376,-0.234 -0.846,-0.189 -1.169,0.078 l -2.517,2.083 c -0.194,-0.091 -0.39,-0.178 -0.588,-0.26 l -0.057,-0.022 c -0.182,-0.075 -0.366,-0.145 -0.548,-0.211 l -0.308,-3.252 c -0.041,-0.441 -0.363,-0.788 -0.773,-0.883 -1.087,-0.252 -2.196,-0.378 -3.297,-0.378 -1.102,0 -2.21,0.126 -3.296,0.378 -0.451,0.102 -0.761,0.495 -0.78,0.936 l -0.301,3.198 c -0.204,0.073 -0.407,0.152 -0.607,0.234 l -0.051,0.023 c -0.181,0.076 -0.36,0.155 -0.535,0.238 l -2.517,-2.084 c -0.35,-0.289 -0.838,-0.3 -1.198,-0.061 -0.456,0.286 -0.902,0.601 -1.333,0.944 -0.437,0.348 -0.852,0.717 -1.241,1.106 -0.388,0.388 -0.758,0.804 -1.105,1.241 -0.35,0.439 -0.67,0.893 -0.961,1.36 -0.235,0.375 -0.19,0.847 0.078,1.17 l 2.083,2.518 c -0.093,0.193 -0.18,0.389 -0.262,0.588 l -0.021,0.056 c -0.074,0.182 -0.145,0.365 -0.211,0.549 l -3.251,0.307 c -0.443,0.041 -0.789,0.363 -0.883,0.773 h -0.001 c -0.125,0.54 -0.22,1.086 -0.282,1.637 -0.064,0.554 -0.097,1.109 -0.097,1.66 0,0.552 0.033,1.106 0.097,1.66 0.062,0.551 0.157,1.098 0.282,1.637 0.103,0.451 0.495,0.76 0.936,0.778 l 3.199,0.302 c 0.072,0.201 0.15,0.402 0.233,0.602 l 0.001,0.003 -0.001,10e-4 c 0.082,0.199 0.169,0.394 0.261,0.587 l -2.083,2.518 c -0.289,0.349 -0.301,0.838 -0.062,1.196 0.287,0.456 0.602,0.903 0.945,1.333 0.347,0.438 0.717,0.854 1.105,1.242 0.389,0.389 0.804,0.758 1.241,1.106 0.44,0.348 0.894,0.67 1.361,0.961 0.375,0.233 0.846,0.188 1.17,-0.079 L -8.015,0.35 c 0.194,0.09 0.389,0.178 0.586,0.26 l 0.058,0.022 c 0.182,0.074 0.366,0.145 0.549,0.211 l 0.307,3.252 c 0.041,0.441 0.364,0.788 0.774,0.883 1.086,0.251 2.194,0.376 3.296,0.376 1.101,0 2.21,-0.125 3.297,-0.376 C 1.303,4.876 1.612,4.483 1.63,4.042"
         style="fill:#ffffff;fill-opacity:1;fill-rule:nonzero;stroke:none"
         id="path907" />
    </g>
    <g
       id="g909"
       transform="matrix(0.35277777,0,0,-0.35277777,24.052158,-19.794597)">
      <path
         d="M 0,0 C -0.965,0.965 -2.299,1.562 -3.772,1.562 -5.245,1.562 -6.579,0.965 -7.544,0 L -7.546,0.002 -7.548,0 c -0.963,-0.963 -1.557,-2.296 -1.557,-3.771 0,-1.473 0.596,-2.807 1.561,-3.772 0.965,-0.965 2.299,-1.562 3.772,-1.562 1.473,0 2.807,0.597 3.772,1.562 0.965,0.965 1.562,2.299 1.562,3.772 0,1.452 -0.577,2.767 -1.513,3.725 C 0.032,-0.031 0.016,-0.016 0,0 m -3.772,3.572 c 2.027,0 3.864,-0.822 5.193,-2.15 0.019,-0.02 0.036,-0.039 0.054,-0.059 1.297,-1.326 2.097,-3.138 2.097,-5.134 0,-2.028 -0.822,-3.864 -2.151,-5.194 -1.329,-1.329 -3.166,-2.151 -5.193,-2.151 -2.028,0 -3.864,0.822 -5.193,2.151 -1.329,1.33 -2.151,3.166 -2.151,5.194 0,2.023 0.822,3.859 2.153,5.191 l -0.002,0.002 c 1.329,1.328 3.165,2.15 5.193,2.15"
         style="fill:#ffffff;fill-opacity:1;fill-rule:nonzero;stroke:none"
         id="path911" />
    </g>
  </g>
</svg>
