<?xml version="1.0" encoding="UTF-8" standalone="no"?>
<svg
   xmlns:dc="http://purl.org/dc/elements/1.1/"
   xmlns:cc="http://creativecommons.org/ns#"
   xmlns:rdf="http://www.w3.org/1999/02/22-rdf-syntax-ns#"
   xmlns:svg="http://www.w3.org/2000/svg"
   xmlns="http://www.w3.org/2000/svg"
   id="svg4533"
   version="1.1"
   viewBox="0 0 13.33289 13.33253"
   height="13.33253mm"
   width="13.33289mm">
  <defs
     id="defs4527" />
  <metadata
     id="metadata4530">
    <rdf:RDF>
      <cc:Work
         rdf:about="">
        <dc:format>image/svg+xml</dc:format>
        <dc:type
           rdf:resource="http://purl.org/dc/dcmitype/StillImage" />
        <dc:title></dc:title>
      </cc:Work>
    </rdf:RDF>
  </metadata>
  <g
     transform="translate(-44.146607,23.67557)"
     id="layer1">
    <path
       d="m 47.736477,-15.471018 h -3.07693 v -3.076575 h 3.07693 z"
       style="fill:#73e600;fill-opacity:1;fill-rule:nonzero;stroke:none;stroke-width:0.35277775"
       id="path3307" />
    <path
       d="m 56.966907,-15.471018 h -3.07693 v -3.076575 h 3.07693 z"
       style="fill:#73e600;fill-opacity:1;fill-rule:nonzero;stroke:none;stroke-width:0.35277775"
       id="path3309" />
    <path
       d="m 52.351517,-15.471018 h -3.07693 v -3.076575 h 3.07693 z"
       style="fill:#73e600;fill-opacity:1;fill-rule:nonzero;stroke:none;stroke-width:0.35277775"
       id="path3311" />
    <path
       d="m 44.680007,-20.475876 h 2.667 v -2.666647 h -2.667 z m 3.20005,0.5334 h -3.73345 v -3.733094 h 3.73345 z"
       style="fill:#051c4f;fill-opacity:1;fill-rule:nonzero;stroke:none;stroke-width:0.35277775"
       id="path3421" />
    <path
       d="m 49.479907,-20.475876 h 2.66665 v -2.666647 h -2.66665 z m 3.19969,0.5334 h -3.73309 v -3.733094 h 3.73309 z"
       style="fill:#051c4f;fill-opacity:1;fill-rule:nonzero;stroke:none;stroke-width:0.35277775"
       id="path3423" />
    <path
       d="m 54.279797,-20.475876 h 2.66665 v -2.666647 h -2.66665 z m 3.1997,0.5334 h -3.7331 v -3.733094 h 3.7331 z"
       style="fill:#051c4f;fill-opacity:1;fill-rule:nonzero;stroke:none;stroke-width:0.35277775"
       id="path3425" />
    <path
       d="m 44.680007,-15.675982 h 2.667 v -2.666647 h -2.667 z m 3.20005,0.5334 h -3.73345 v -3.733447 h 3.73345 z"
       style="fill:#051c4f;fill-opacity:1;fill-rule:nonzero;stroke:none;stroke-width:0.35277775"
       id="path3427" />
    <path
       d="m 49.479907,-15.675982 h 2.66665 v -2.666647 h -2.66665 z m 3.19969,0.5334 h -3.73309 v -3.733447 h 3.73309 z"
       style="fill:#051c4f;fill-opacity:1;fill-rule:nonzero;stroke:none;stroke-width:0.35277775"
       id="path3429" />
    <path
       d="m 54.279797,-15.675982 h 2.66665 v -2.666647 h -2.66665 z m 3.1997,0.5334 h -3.7331 v -3.733447 h 3.7331 z"
       style="fill:#051c4f;fill-opacity:1;fill-rule:nonzero;stroke:none;stroke-width:0.35277775"
       id="path3431" />
    <path
       d="m 44.680007,-10.87644 h 2.667 v -2.666647 h -2.667 z m 3.20005,0.5334 h -3.73345 v -3.733095 h 3.73345 z"
       style="fill:#051c4f;fill-opacity:1;fill-rule:nonzero;stroke:none;stroke-width:0.35277775"
       id="path3433" />
    <path
       d="m 49.479907,-10.87644 h 2.66665 v -2.666647 h -2.66665 z m 3.19969,0.5334 h -3.73309 v -3.733095 h 3.73309 z"
       style="fill:#051c4f;fill-opacity:1;fill-rule:nonzero;stroke:none;stroke-width:0.35277775"
       id="path3435" />
    <path
       d="m 54.279797,-10.87644 h 2.66665 v -2.666647 h -2.66665 z m 3.1997,0.5334 h -3.7331 v -3.733095 h 3.7331 z"
       style="fill:#051c4f;fill-opacity:1;fill-rule:nonzero;stroke:none;stroke-width:0.35277775"
       id="path3437" />
  </g>
</svg>
