<?xml version="1.0" encoding="UTF-8" standalone="no"?>
<svg
   xmlns:dc="http://purl.org/dc/elements/1.1/"
   xmlns:cc="http://creativecommons.org/ns#"
   xmlns:rdf="http://www.w3.org/1999/02/22-rdf-syntax-ns#"
   xmlns:svg="http://www.w3.org/2000/svg"
   xmlns="http://www.w3.org/2000/svg"
   id="svg5890"
   version="1.1"
   viewBox="0 0 22.078245 19.056"
   height="19.056mm"
   width="22.078245mm">
  <defs
     id="defs5884" />
  <metadata
     id="metadata5887">
    <rdf:RDF>
      <cc:Work
         rdf:about="">
        <dc:format>image/svg+xml</dc:format>
        <dc:type
           rdf:resource="http://purl.org/dc/dcmitype/StillImage" />
        <dc:title></dc:title>
      </cc:Work>
    </rdf:RDF>
  </metadata>
  <g
     transform="translate(-66.084698,-288.21205)"
     id="layer1">
    <path
       id="path941"
       style="fill:#73e600;fill-opacity:1;fill-rule:nonzero;stroke:none;stroke-width:0.35277775"
       d="m 81.33634,298.74785 c 0,2.32692 -1.88595,4.21252 -4.212519,4.21252 -2.326569,0 -4.212519,-1.8856 -4.212519,-4.21252 0,-2.32693 1.88595,-4.21252 4.212519,-4.21252 2.326569,0 4.212519,1.88559 4.212519,4.21252" />
    <path
       id="path981"
       style="fill:#051c4f;fill-opacity:1;fill-rule:nonzero;stroke:none;stroke-width:0.35277775"
       d="m 77.123856,293.0338 c -3.151012,0 -5.714295,2.56328 -5.714295,5.71394 0,3.15101 2.563283,5.71429 5.714295,5.71429 3.150658,0 5.714294,-2.56328 5.714294,-5.71429 0,-3.15066 -2.563636,-5.71394 -5.714294,-5.71394 m 0,12.25021 c -3.603978,0 -6.535914,-2.93264 -6.535914,-6.53627 0,-3.60433 2.931936,-6.53591 6.535914,-6.53591 3.603624,0 6.535913,2.93158 6.535913,6.53591 0,3.60363 -2.932289,6.53627 -6.535913,6.53627" />
    <path
       id="path985"
       style="fill:#051c4f;fill-opacity:1;fill-rule:nonzero;stroke:none;stroke-width:0.35277775"
       d="m 77.123856,294.70948 c -2.226381,0 -4.037895,1.81222 -4.037895,4.03825 0,2.22638 1.811514,4.0386 4.037895,4.0386 2.226733,0 4.037894,-1.81222 4.037894,-4.0386 0,-2.22603 -1.811161,-4.03825 -4.037894,-4.03825 m 0,8.89812 c -2.6797,0 -4.859514,-2.18017 -4.859514,-4.85987 0,-2.67935 2.179814,-4.85951 4.859514,-4.85951 2.6797,0 4.859513,2.18016 4.859513,4.85951 0,2.6797 -2.179813,4.85987 -4.859513,4.85987" />
    <path
       d="m 87.341323,303.33599 c 0,1.71485 -1.39524,3.11079 -3.110089,3.11079 H 70.016406 c -1.714852,0 -3.110089,-1.39594 -3.110089,-3.11079 v -8.60037 c 0,-1.71486 1.395237,-3.11009 3.110089,-3.11009 h 1.592792 c 0.223661,0 0.406047,-0.17851 0.410633,-0.40252 0.02363,-1.16593 1.134181,-2.18899 2.376311,-2.18899 h 5.455708 c 1.264709,0 2.352675,1.0026 2.376664,2.18899 0.0046,0.22401 0.186972,0.40252 0.410633,0.40252 h 1.592087 c 1.714849,0 3.110089,1.39523 3.110089,3.11009 z M 68.867409,290.57813 c 0,-0.25823 0.209903,-0.46778 0.467783,-0.46778 0.258234,0 0.468489,0.20955 0.468489,0.46778 v 0.23707 c -0.323497,0.0173 -0.637822,0.0695 -0.936272,0.16122 z m 15.363825,0.22613 h -1.218848 c -0.242358,-1.44145 -1.601963,-2.59221 -3.160536,-2.59221 h -5.455708 c -1.557866,0 -2.917472,1.15076 -3.15983,2.59221 h -0.611364 v -0.22613 c 0,-0.7112 -0.578556,-1.28976 -1.289756,-1.28976 -0.710847,0 -1.289402,0.57856 -1.289402,1.28976 v 0.76059 c -1.170517,0.68227 -1.961092,1.94733 -1.961092,3.3969 v 8.60037 c 0,2.16817 1.763889,3.93206 3.931708,3.93206 h 14.214828 c 2.167819,0 3.931709,-1.76389 3.931709,-3.93206 v -8.60037 c 0,-2.16747 -1.76389,-3.93136 -3.931709,-3.93136"
       style="fill:#051c4f;fill-opacity:1;fill-rule:nonzero;stroke:none;stroke-width:0.35277775"
       id="path989" />
    <path
       id="path993"
       style="fill:#051c4f;fill-opacity:1;fill-rule:nonzero;stroke:none;stroke-width:0.35277775"
       d="m 74.853201,298.08083 -0.788105,-0.23142 c 0.318558,-1.08797 1.201561,-1.93005 2.303991,-2.19816 l 0.194028,0.79869 c -0.818091,0.19897 -1.4732,0.82338 -1.709914,1.63089" />
  </g>
</svg>
