<?xml version="1.0" encoding="UTF-8" standalone="no"?>
<!-- Created with Inkscape (http://www.inkscape.org/) -->

<svg
   xmlns:dc="http://purl.org/dc/elements/1.1/"
   xmlns:cc="http://creativecommons.org/ns#"
   xmlns:rdf="http://www.w3.org/1999/02/22-rdf-syntax-ns#"
   xmlns:svg="http://www.w3.org/2000/svg"
   xmlns="http://www.w3.org/2000/svg"
   xmlns:sodipodi="http://sodipodi.sourceforge.net/DTD/sodipodi-0.dtd"
   xmlns:inkscape="http://www.inkscape.org/namespaces/inkscape"
   width="19.027794mm"
   height="20.009501mm"
   viewBox="0 0 19.027794 20.009501"
   version="1.1"
   id="svg5890"
   inkscape:version="0.92.3 (2405546, 2018-03-11)"
   sodipodi:docname="natur-guide.svg">
  <defs
     id="defs5884" />
  <sodipodi:namedview
     id="base"
     pagecolor="#ffffff"
     bordercolor="#666666"
     borderopacity="1.0"
     inkscape:pageopacity="0.0"
     inkscape:pageshadow="2"
     inkscape:zoom="5.6"
     inkscape:cx="-4.0450592"
     inkscape:cy="31.741792"
     inkscape:document-units="mm"
     inkscape:current-layer="layer1"
     showgrid="false"
     inkscape:window-width="1920"
     inkscape:window-height="1017"
     inkscape:window-x="1912"
     inkscape:window-y="1072"
     inkscape:window-maximized="1" />
  <metadata
     id="metadata5887">
    <rdf:RDF>
      <cc:Work
         rdf:about="">
        <dc:format>image/svg+xml</dc:format>
        <dc:type
           rdf:resource="http://purl.org/dc/dcmitype/StillImage" />
        <dc:title></dc:title>
      </cc:Work>
    </rdf:RDF>
  </metadata>
  <g
     inkscape:label="Layer 1"
     inkscape:groupmode="layer"
     id="layer1"
     transform="translate(-90.680417,-279.89008)">
    <path
       inkscape:connector-curvature="0"
       id="path3477"
       style="fill:#051c4f;fill-opacity:1;fill-rule:nonzero;stroke:none;stroke-width:0.35277775"
       d="m 92.60827,284.19278 2.644069,2.20275 -2.644069,3.56376 z m 5.574947,-1.74731 -2.656416,3.57999 -2.656064,-2.21227 z m 0.341489,6.07766 -2.644069,-2.20274 2.644069,-3.56341 z m -5.574594,1.74696 2.656064,-3.57964 2.656416,2.21262 z m -0.79622,0.43038 0.0021,0.0106 c 0.0039,0.0152 0.0085,0.0296 0.01552,0.0434 0.0011,0.002 0.0025,0.004 0.0035,0.007 0.0039,0.007 0.0078,0.0152 0.0127,0.0222 0.0018,0.002 0.0042,0.005 0.006,0.007 0.0063,0.009 0.01341,0.0166 0.02081,0.0243 0.0056,0.005 0.01094,0.0116 0.01729,0.0162 0.0018,0.002 0.0032,0.004 0.0056,0.006 0.01058,0.008 0.02152,0.0152 0.03316,0.0215 l 0.0028,10e-4 c 0.01376,0.007 0.02857,0.0127 0.04339,0.0166 0.0042,0.001 0.0081,0.002 0.01235,0.004 0.01623,0.004 0.03246,0.006 0.04939,0.006 0.01905,0 0.0381,-0.002 0.05715,-0.007 l 6.376458,-1.64111 c 0.01905,-0.005 0.03634,-0.0124 0.05292,-0.0222 0.0032,-10e-4 0.006,-0.002 0.0092,-0.005 0.01552,-0.01 0.02999,-0.0208 0.04269,-0.0332 0.0021,-0.003 0.0046,-0.005 0.0064,-0.008 0.0127,-0.0138 0.02434,-0.0282 0.03316,-0.0444 l 3.44e-4,-7.1e-4 c 0.0088,-0.0166 0.01552,-0.0346 0.02011,-0.054 7.15e-4,-10e-4 0.0018,-0.004 0.0025,-0.005 0,0 3.44e-4,-0.004 7.14e-4,-0.007 7.15e-4,-0.004 0.0014,-0.008 0.0018,-0.0131 0.0011,-0.008 0.0018,-0.0152 0.0021,-0.0226 0,-0.003 7.14e-4,-0.006 7.14e-4,-0.008 v -6.95289 c 0,-0.0709 -0.03316,-0.13865 -0.08925,-0.18204 -0.05609,-0.0434 -0.129469,-0.0586 -0.197908,-0.0406 l -6.376468,1.64148 c -0.1016,0.0261 -0.172861,0.11783 -0.172861,0.22225 v 6.9529 c 0,0.001 7.06e-4,0.004 7.06e-4,0.006 3.52e-4,0.0131 0.0021,0.0268 0.0049,0.0399 m 17.093489,6.40645 -0.56479,-0.14041 v -13.70612 c 0,-0.0949 -0.0589,-0.18027 -0.14782,-0.21414 l -4.40725,-1.68063 5.11986,1.31833 z m -1.02446,0.71825 -0.49918,-0.18556 v -13.62392 c 0,-0.0847 -0.0469,-0.16263 -0.12171,-0.2025 l -4.09963,-2.19322 4.72052,1.79917 z m -0.9592,0.70627 -0.63254,-0.33162 v -13.42883 c 0,-0.0723 -0.0342,-0.14076 -0.0921,-0.18415 l -3.79659,-2.85186 4.5212,2.41864 z m -1.09256,0.67909 -5.73546,-4.23404 V 280.579 l 5.73546,4.30777 z m -6.209945,-4.37585 -8.821561,2.26977 v -14.4205 l 8.821561,-2.27048 z m 9.573335,-12.55184 -9.24349,-2.37913 -0.003,-10e-4 h -3.4e-4 c -0.009,-0.004 -0.018,-0.006 -0.0272,-0.008 l -0.002,-7e-4 c -0.007,-10e-4 -0.0134,-0.002 -0.0198,-0.003 -0.002,0 -0.005,-7e-4 -0.007,-7e-4 -0.008,-0.001 -0.0159,-0.001 -0.0236,-0.001 l -0.006,-7.1e-4 -0.003,7.1e-4 h -0.006 c -0.0198,0 -0.0392,0.001 -0.0586,0.007 l -9.281585,2.3883 c -0.1016,0.0261 -0.172508,0.11783 -0.172508,0.22261 v 14.89569 c 0,0.0713 0.03281,0.13793 0.08925,0.18203 0.04057,0.031 0.09031,0.0476 0.140758,0.0476 0.01905,0 0.03845,-0.002 0.0575,-0.007 l 9.101315,-2.34174 c 0.009,0.007 0.0194,0.0123 0.03,0.0169 l 6.1662,4.5526 c 0.0402,0.0296 0.0882,0.0448 0.13653,0.0448 0.0353,0 0.0709,-0.008 0.10371,-0.0251 0.0773,-0.0391 0.1263,-0.11853 0.1263,-0.20531 v -0.94721 l 0.75565,0.39617 c 0.0335,0.0173 0.0702,0.0261 0.10654,0.0261 0.0416,0 0.0829,-0.0109 0.11923,-0.0332 0.0691,-0.042 0.11113,-0.11641 0.11113,-0.19685 v -0.78069 l 0.64911,0.24094 c 0.0261,0.01 0.0529,0.0145 0.0801,0.0145 0.0462,0 0.0921,-0.0138 0.13123,-0.0413 0.0617,-0.0427 0.0984,-0.11289 0.0984,-0.18873 v -0.71508 l 0.73943,0.18379 c 0.0183,0.004 0.037,0.006 0.0554,0.006 0.0508,0 0.10089,-0.0166 0.14181,-0.0483 0.0557,-0.0441 0.0882,-0.11077 0.0882,-0.18132 V 282.5083 c 0,-0.10478 -0.0709,-0.1965 -0.17286,-0.22261 m -10.836979,10.88778 -6.376458,1.64218 c -0.123119,0.0314 -0.19685,0.15699 -0.165453,0.2794 0.02681,0.10407 0.120297,0.17322 0.222603,0.17322 0.0187,0 0.0381,-0.003 0.0575,-0.008 l 6.376458,-1.64112 c 0.123119,-0.0317 0.197203,-0.15699 0.165453,-0.28046 -0.03175,-0.12277 -0.156986,-0.19721 -0.280106,-0.16546 m 0,-1.24283 -6.376458,1.64112 c -0.123119,0.0318 -0.19685,0.15699 -0.165453,0.28046 0.02681,0.10336 0.120297,0.17215 0.222603,0.17215 0.0187,0 0.0381,-0.002 0.0575,-0.007 l 6.376458,-1.64218 c 0.123119,-0.0314 0.197203,-0.15699 0.165453,-0.2794 -0.03175,-0.12347 -0.156986,-0.1972 -0.280106,-0.16545" />
    <path
       inkscape:connector-curvature="0"
       id="path3545"
       style="fill:#73e600;fill-opacity:1;fill-rule:nonzero;stroke:none;stroke-width:0.35277775"
       d="M 107.26368,298.53126 106.63115,298.2 v -13.42919 c 0,-0.0723 -0.0342,-0.14041 -0.0921,-0.1838 l -3.79659,-2.85186 4.5212,2.4183 z" />
    <path
       inkscape:connector-curvature="0"
       id="path3549"
       style="fill:#73e600;fill-opacity:1;fill-rule:nonzero;stroke:none;stroke-width:0.35277775"
       d="m 109.24738,297.10706 -0.56479,-0.14041 v -13.70612 c 0,-0.0952 -0.0589,-0.18062 -0.14817,-0.21414 l -4.4069,-1.68063 5.11986,1.31798 z" />
  </g>
</svg>
