<?xml version="1.0" encoding="UTF-8" standalone="no"?>
<svg
   xmlns:svg="http://www.w3.org/2000/svg"
   xmlns="http://www.w3.org/2000/svg"
   id="svg1056"
   version="1.1"
   viewBox="0 0 19.500496 19.499792"
   height="19.499792mm"
   width="19.500496mm">
  <defs
     id="defs1050" />
  <g
     transform="translate(8.9171589,-294.73213)"
     id="layer1">
    <g
       transform="matrix(0.35277777,0,0,-0.35277777,-1.6239369,295.49489)"
       id="g943">
      <path
         id="path945"
         style="fill:#73e600;fill-opacity:1;fill-rule:nonzero;stroke:none"
         d="m 0,0 1.75,-2.561 1.5,-3.564 v -2.623 l -1.062,-2.688 c 0,0 -3.5,-1.062 -3.688,-1.187 -0.187,-0.125 -4,-1.313 -4.187,-1.313 -0.188,0 -2,-0.562 -2,-0.562 v -1.438 l 2.437,-1.687 4,-1.75 2.062,-2.063 1.501,-3.312 c 0,0 1.312,-1.031 1.5,-0.891 0.187,0.141 3.374,1.891 3.562,2.016 0.187,0.125 1.188,0.482 1.438,0.334 0.25,-0.147 0.812,-2.022 0.812,-2.022 l -0.375,-3.5 -3.5,-4.937 c 0,0 -1.812,-2.438 -1.688,-2.625 0.125,-0.188 0.125,-2.563 0.125,-2.563 l -2.312,-2.75 -1.563,-3 L -2,-46.248 h -2 l -1.125,2.312 -0.187,7.563 -0.125,3 -3.813,5.562 v 5.563 l -1.25,3.437 -4,4.063 -2.375,1.625 5.125,6.5 5.188,4 z" />
    </g>
    <g
       transform="matrix(0.35277777,0,0,-0.35277777,0.83291313,295.43769)"
       id="g951">
      <path
         id="path953"
         style="fill:#051c4f;fill-opacity:1;fill-rule:nonzero;stroke:none"
         d="m 0,0 c -14.137,0 -25.638,-11.5 -25.638,-25.637 0,-14.138 11.501,-25.638 25.638,-25.638 14.138,0 25.639,11.5 25.639,25.638 C 25.639,-11.5 14.138,0 0,0 m 0,-53.275 c -15.239,0 -27.638,12.398 -27.638,27.638 C -27.638,-10.398 -15.239,2 0,2 15.24,2 27.639,-10.398 27.639,-25.637 27.639,-40.877 15.24,-53.275 0,-53.275" />
    </g>
    <g
       transform="matrix(0.35277777,0,0,-0.35277777,-2.5601369,312.26767)"
       id="g955">
      <path
         id="path957"
         style="fill:#051c4f;fill-opacity:1;fill-rule:nonzero;stroke:none"
         d="m 0,0 c -1.743,0 -3.009,1.098 -3.343,2.939 -0.332,1.823 -0.157,3.895 0.012,5.901 0.172,2.051 0.368,4.373 -0.273,5.014 -0.566,0.566 -5.482,5.681 -3.82,10.871 0.778,2.429 -4.426,7.136 -7.067,9.037 -0.448,0.322 -0.551,0.947 -0.228,1.394 0.322,0.449 0.947,0.553 1.396,0.229 0.949,-0.684 9.235,-6.799 7.803,-11.27 -1.056,-3.299 1.597,-7.113 3.331,-8.847 1.296,-1.295 1.09,-3.752 0.851,-6.596 C -1.496,6.797 -1.659,4.857 -1.376,3.297 -1.201,2.338 -0.7,1.93 0.213,2.012 c 1.265,0.113 2.501,1.14 2.501,1.822 0,2.361 1.452,3.691 2.618,4.76 0.22,0.201 0.435,0.396 0.634,0.595 0.097,0.098 0.107,0.207 0.003,0.838 -0.182,1.09 -0.455,2.737 1.512,4.705 2.86,2.86 5.222,7.405 3.867,8.76 -0.457,0.457 -0.634,0.526 -2.032,-0.736 C 8.44,21.967 7.449,21.07 6.147,21.07 c -1.952,0 -2.433,1.641 -2.786,2.838 -0.285,0.971 -0.58,1.977 -1.422,2.819 -1.014,1.013 -2.323,1.554 -3.71,2.128 -1.37,0.569 -2.788,1.157 -3.872,2.241 -0.763,0.763 -0.706,1.486 -0.603,1.847 0.374,1.321 2.194,1.848 4.726,2.45 0.564,0.132 1.335,0.316 1.524,0.418 0.432,0.248 0.959,0.341 1.517,0.439 1.281,0.227 2.605,0.461 3.429,2.316 0.874,1.967 -1.329,6.385 -2.924,8.707 -0.312,0.456 -0.197,1.079 0.258,1.391 0.455,0.313 1.077,0.197 1.391,-0.258 C 4.162,47.697 8.389,41.379 6.778,37.754 5.521,34.926 3.234,34.522 1.868,34.281 1.54,34.223 1.131,34.15 1.001,34.076 0.607,33.848 -0.007,33.695 -1.058,33.447 -1.845,33.26 -3.567,32.85 -4.181,32.463 c 0.802,-0.776 1.956,-1.254 3.176,-1.76 1.436,-0.594 3.063,-1.267 4.359,-2.562 1.203,-1.204 1.621,-2.629 1.926,-3.668 0.396,-1.348 0.507,-1.403 0.867,-1.403 0.533,0 1.191,0.594 1.829,1.17 1.071,0.969 2.868,2.588 4.786,0.666 C 15.679,21.988 11.417,15.84 8.896,13.318 7.655,12.078 7.788,11.279 7.941,10.355 8.063,9.625 8.229,8.625 7.38,7.775 7.16,7.557 6.924,7.34 6.683,7.119 5.626,6.15 4.714,5.316 4.714,3.834 4.714,1.873 2.433,0.203 0.393,0.02 0.26,0.008 0.128,0 0,0" />
    </g>
    <g
       transform="matrix(0.35277777,0,0,-0.35277777,7.5401731,311.41468)"
       id="g959">
      <path
         id="path961"
         style="fill:#051c4f;fill-opacity:1;fill-rule:nonzero;stroke:none"
         d="m 0,0 c -0.125,0 -0.252,0.023 -0.374,0.072 -0.513,0.207 -0.76,0.789 -0.554,1.301 1.316,3.26 0.481,4.449 -0.843,5.772 -1.144,1.144 -0.484,2.644 0.046,3.851 0.755,1.715 1.128,2.842 -0.046,4.016 -1.028,1.027 -2.176,1.222 -3.392,1.429 -1.781,0.301 -3.999,0.678 -4.644,4.286 -0.491,2.753 0.518,5.312 2.701,6.843 1.684,1.182 3.663,1.432 5.042,0.635 1.469,-0.85 6.2,-1.047 8.838,-0.965 0.53,-0.002 1.013,-0.418 1.03,-0.97 0.015,-0.551 -0.419,-1.012 -0.971,-1.03 -0.757,-0.017 -7.458,-0.176 -9.897,1.233 -0.687,0.398 -1.875,0.173 -2.894,-0.539 -1.528,-1.073 -2.23,-2.889 -1.88,-4.856 0.398,-2.223 1.271,-2.371 3.01,-2.666 1.333,-0.226 2.992,-0.508 4.472,-1.986 C 1.87,14.199 0.809,11.787 0.106,10.191 -0.163,9.576 -0.533,8.736 -0.356,8.559 1.616,6.586 2.52,4.57 0.928,0.625 0.771,0.236 0.396,0 0,0" />
    </g>
    <g
       transform="matrix(0.35277777,0,0,-0.35277777,3.7013131,299.65311)"
       id="g963">
      <path
         id="path965"
         style="fill:#051c4f;fill-opacity:1;fill-rule:nonzero;stroke:none"
         d="M 0,0 C -0.27,0 -0.54,0.037 -0.813,0.123 -1.691,0.4 -2.393,1.125 -2.958,2.336 -4.453,5.539 0.937,10.455 2.033,11.408 2.45,11.77 3.082,11.727 3.443,11.311 3.806,10.895 3.763,10.262 3.346,9.9 1.159,7.994 -1.78,4.543 -1.145,3.182 -0.932,2.725 -0.597,2.152 -0.212,2.031 0.304,1.869 1.26,2.422 2.188,2.957 2.637,3.217 2.983,3.482 3.318,3.74 4.335,4.52 5.386,5.33 7.565,4.07 9.095,3.189 11.944,3.328 12.914,3.457 13.474,3.529 13.965,3.145 14.038,2.598 14.11,2.051 13.728,1.547 13.18,1.475 13.012,1.451 9,0.934 6.565,2.338 5.547,2.928 5.43,2.84 4.537,2.154 4.187,1.885 3.751,1.551 3.189,1.227 2.101,0.598 1.062,0 0,0" />
    </g>
  </g>
</svg>
